<svg color="#594AE2" xmlns="http://www.w3.org/2000/svg" viewBox="0 0 422.55 109.9">
	<path fill-rule="evenodd" clip-rule="evenodd" fill="currentColor" d="M0,109.9V89.73L18.81,78.27.14,66.8,0,46.77,40.24,69.93V86.79Z" />
	<path fill-rule="evenodd" clip-rule="evenodd" fill="currentColor" d="M40.2.38V20.55L21.39,32,40.11,43.48l.09,20L0,40.35V23.5Z" />
	<path fill-rule="evenodd" clip-rule="evenodd" fill="currentColor" d="M93.58,68.33H54.68l-8.51-8.51V0h17.7V21.48H86.11v17.7H63.87V50.64H93.58Z" />
	<path fill-rule="evenodd" clip-rule="evenodd" fill="currentColor" d="M133.33,17.7H113.08V29.15h12.78v17.7H113.08V68.33H95.38V8.52L103.9,0h29.43Z" />
	<path fill-rule="evenodd" clip-rule="evenodd" fill="currentColor" d="M59.43,92.19l-2,2-12-10,12-10,2,2-9.73,8Z" />
	<path fill-rule="evenodd" clip-rule="evenodd" fill="currentColor" d="M80.19,89a4.37,4.37,0,0,1-.32,1.7A4.6,4.6,0,0,1,79,92a5.22,5.22,0,0,1-1.28,1,9.09,9.09,0,0,1-1.56.68,10.08,10.08,0,0,1-1.71.39,12.54,12.54,0,0,1-1.71.13c-1.22,0-2.33-.06-3.35-.16a22.49,22.49,0,0,1-3-.52V90.65a23.91,23.91,0,0,0,3.12.68,21.64,21.64,0,0,0,3.09.23,7,7,0,0,0,3.31-.6A1.92,1.92,0,0,0,77,89.22a2.13,2.13,0,0,0-.17-.86,2,2,0,0,0-.62-.73,5.69,5.69,0,0,0-1.38-.73c-.63-.25-1.48-.53-2.57-.85A18.32,18.32,0,0,1,70,85.23a7.33,7.33,0,0,1-1.77-1.08,4.61,4.61,0,0,1-1.18-1.46,4.25,4.25,0,0,1-.43-2A4.66,4.66,0,0,1,67,79.06a4.55,4.55,0,0,1,1.19-1.66,6.63,6.63,0,0,1,2.26-1.27A10.79,10.79,0,0,1,74,75.62c.71,0,1.49,0,2.34.11a25,25,0,0,1,2.68.41V78.9a26.6,26.6,0,0,0-2.77-.52A17,17,0,0,0,74,78.21a9,9,0,0,0-2,.18,4,4,0,0,0-1.28.49,1.91,1.91,0,0,0,0,3.26,6.79,6.79,0,0,0,1.42.74c.61.24,1.4.51,2.38.79a18.55,18.55,0,0,1,2.67,1,6.76,6.76,0,0,1,1.77,1.14,3.64,3.64,0,0,1,1,1.41A5.19,5.19,0,0,1,80.19,89Z" />
	<path fill-rule="evenodd" clip-rule="evenodd" fill="currentColor" d="M98.88,93.87V81a12.6,12.6,0,0,0-.06-1.37,3,3,0,0,0-.2-.85.93.93,0,0,0-.34-.44,1,1,0,0,0-.5-.12,1.13,1.13,0,0,0-.66.21,3,3,0,0,0-.66.7,12.1,12.1,0,0,0-.76,1.27c-.28.53-.61,1.19-1,2V93.87H91.87V81.33a13.79,13.79,0,0,0-.07-1.59,3.58,3.58,0,0,0-.19-.94.94.94,0,0,0-.35-.47,1.05,1.05,0,0,0-.52-.12,1.14,1.14,0,0,0-.61.18,2.54,2.54,0,0,0-.63.64,10.57,10.57,0,0,0-.78,1.27c-.28.53-.62,1.22-1,2V93.87H84.85V75.94h2.37l.15,3.41a16.93,16.93,0,0,1,.9-1.73,5.35,5.35,0,0,1,.9-1.15,3.2,3.2,0,0,1,1-.65,3.34,3.34,0,0,1,1.17-.2,2.65,2.65,0,0,1,2.2.94,4.71,4.71,0,0,1,.75,2.93,18,18,0,0,1,.84-1.65A5.81,5.81,0,0,1,96,76.63a3.24,3.24,0,0,1,1-.75,3.2,3.2,0,0,1,1.32-.26q3.38,0,3.38,5.19V93.87Z" />
	<path fill-rule="evenodd" clip-rule="evenodd" fill="currentColor" d="M117.72,93.87l-.07-2.41a9.62,9.62,0,0,1-3,2.08,7.94,7.94,0,0,1-3.16.65,7.58,7.58,0,0,1-2.63-.4,4.82,4.82,0,0,1-1.79-1.08,4.11,4.11,0,0,1-1-1.61,6,6,0,0,1-.33-2,5,5,0,0,1,2-4.22,9.71,9.71,0,0,1,5.94-1.53h3.71V81.76a3.3,3.3,0,0,0-1-2.54,4.39,4.39,0,0,0-3.11-1,13.12,13.12,0,0,0-3,.34,22.51,22.51,0,0,0-3,1v-2.8c.39-.14.83-.28,1.31-.42s1-.26,1.53-.36a16.44,16.44,0,0,1,1.68-.26,14.72,14.72,0,0,1,1.76-.1,11,11,0,0,1,2.93.36,5.93,5.93,0,0,1,2.21,1.08A4.86,4.86,0,0,1,120,78.9a6.54,6.54,0,0,1,.48,2.61V93.87Zm-.34-8.16h-3.95a7.38,7.38,0,0,0-2,.23,3.65,3.65,0,0,0-1.37.66,2.67,2.67,0,0,0-.8,1A3.34,3.34,0,0,0,109,89a2.94,2.94,0,0,0,.16,1,2.14,2.14,0,0,0,.51.84,2.42,2.42,0,0,0,.93.58,3.85,3.85,0,0,0,1.4.22,5.94,5.94,0,0,0,2.45-.65,12.19,12.19,0,0,0,2.92-2.07Z" />
	<path fill-rule="evenodd" clip-rule="evenodd" fill="currentColor" d="M132.41,71.19h-5.3V68.64h8.44V91.28h5.34v2.59H126.52V91.28h5.89Z" />
	<path fill-rule="evenodd" clip-rule="evenodd" fill="currentColor" d="M152.51,71.19h-5.3V68.64h8.45V91.28H161v2.59H146.62V91.28h5.89Z" />
	<path fill-rule="evenodd" clip-rule="evenodd" fill="currentColor" d="M201.06,93.62a16.8,16.8,0,0,1-2.18.38,21.48,21.48,0,0,1-2.28.12,7.24,7.24,0,0,1-5-1.53,6.06,6.06,0,0,1-1.66-4.69V78.55h-5V75.94h5V71l3.11-.8v5.73h8.05v2.61H193v9.1a3.78,3.78,0,0,0,1,2.89,4.35,4.35,0,0,0,3,.95,14.13,14.13,0,0,0,1.87-.13,18.17,18.17,0,0,0,2.13-.42Z" />
	<path fill-rule="evenodd" clip-rule="evenodd" fill="currentColor" d="M201.06,93.62a16.8,16.8,0,0,1-2.18.38,21.48,21.48,0,0,1-2.28.12,7.24,7.24,0,0,1-5-1.53,6.06,6.06,0,0,1-1.66-4.69V78.55h-5V75.94h5V71l3.11-.8v5.73h8.05v2.61H193v9.1a3.78,3.78,0,0,0,1,2.89,4.35,4.35,0,0,0,3,.95,14.13,14.13,0,0,0,1.87-.13,18.17,18.17,0,0,0,2.13-.42Z" />
	<path fill-rule="evenodd" clip-rule="evenodd" fill="currentColor" d="M218.23,93.87l-.07-2.41a9.48,9.48,0,0,1-3,2.08,8,8,0,0,1-3.17.65,7.52,7.52,0,0,1-2.62-.4,4.86,4.86,0,0,1-1.8-1.08,4.09,4.09,0,0,1-1-1.61,6,6,0,0,1-.33-2,5,5,0,0,1,2-4.22q2-1.53,5.93-1.53h3.72V81.76a3.3,3.3,0,0,0-1-2.54,4.4,4.4,0,0,0-3.11-1,13.06,13.06,0,0,0-3,.34,22.07,22.07,0,0,0-3,1v-2.8c.39-.14.83-.28,1.31-.42s1-.26,1.53-.36a16.68,16.68,0,0,1,1.67-.26,15,15,0,0,1,1.77-.1A11,11,0,0,1,217,76a5.89,5.89,0,0,1,2.2,1.08,4.78,4.78,0,0,1,1.39,1.84,6.54,6.54,0,0,1,.48,2.61V93.87Zm-.33-8.16h-4a7.38,7.38,0,0,0-2,.23,3.57,3.57,0,0,0-1.37.66,2.58,2.58,0,0,0-.8,1,3.34,3.34,0,0,0-.26,1.34,3.21,3.21,0,0,0,.16,1,2.16,2.16,0,0,0,.52.84,2.42,2.42,0,0,0,.93.58,3.79,3.79,0,0,0,1.39.22A6,6,0,0,0,215,91a12.39,12.39,0,0,0,2.92-2.07Z" />
	<path fill-rule="evenodd" clip-rule="evenodd" fill="currentColor" d="M241,89a4.19,4.19,0,0,1-.33,1.7,4.37,4.37,0,0,1-.87,1.33,5.27,5.27,0,0,1-1.29,1,8.45,8.45,0,0,1-1.56.68,9.75,9.75,0,0,1-1.7.39,12.81,12.81,0,0,1-1.72.13c-1.21,0-2.33-.06-3.34-.16a22.49,22.49,0,0,1-3-.52V90.65a23.22,23.22,0,0,0,3.12.68,21.53,21.53,0,0,0,3.09.23,7,7,0,0,0,3.3-.6,1.9,1.9,0,0,0,1.07-1.74,2,2,0,0,0-.17-.86,1.94,1.94,0,0,0-.61-.73,5.6,5.6,0,0,0-1.39-.73c-.62-.25-1.48-.53-2.56-.85a17.18,17.18,0,0,1-2.24-.82,7.4,7.4,0,0,1-1.78-1.08,4.44,4.44,0,0,1-1.17-1.46,4.25,4.25,0,0,1-.43-2,4.45,4.45,0,0,1,.35-1.65A4.51,4.51,0,0,1,229,77.4a6.68,6.68,0,0,1,2.27-1.27,10.71,10.71,0,0,1,3.57-.51c.7,0,1.48,0,2.34.11a25,25,0,0,1,2.68.41V78.9a26.77,26.77,0,0,0-2.78-.52,16.77,16.77,0,0,0-2.27-.17,9,9,0,0,0-2,.18,3.93,3.93,0,0,0-1.28.49,1.9,1.9,0,0,0-.71.73,2,2,0,0,0-.21.9,1.77,1.77,0,0,0,.88,1.63,6.79,6.79,0,0,0,1.42.74c.61.24,1.4.51,2.37.79a18.72,18.72,0,0,1,2.68,1,6.76,6.76,0,0,1,1.77,1.14,3.51,3.51,0,0,1,1,1.41A5,5,0,0,1,241,89Z" />
	<path fill-rule="evenodd" clip-rule="evenodd" fill="currentColor" d="M263.05,93.87h-4.27l-8.36-9.61v9.61h-3.1V68.64h3.1v15.5l8.06-8.2h4.1l-8.41,8.27Z" />
	<path fill-rule="evenodd" clip-rule="evenodd" fill="currentColor" d="M303,71.53a20.43,20.43,0,0,0-4.21-.52c-2.8,0-4.2,1.47-4.2,4.39v3.15h7.86v2.59h-7.86V93.87h-3.16V81.14H285.7V78.55h5.77v-3q0-7.15,7.46-7.16a22.63,22.63,0,0,1,4.11.43Z" />
	<path fill-rule="evenodd" clip-rule="evenodd" fill="currentColor" d="M322.84,84.76a12,12,0,0,1-.59,3.83,8.47,8.47,0,0,1-1.7,3,7.5,7.5,0,0,1-2.69,1.93,9,9,0,0,1-3.61.69,9.39,9.39,0,0,1-3.45-.6,6.89,6.89,0,0,1-2.59-1.76A7.81,7.81,0,0,1,306.58,89,12.85,12.85,0,0,1,306,85a11.8,11.8,0,0,1,.59-3.81,8.52,8.52,0,0,1,1.7-3A7.57,7.57,0,0,1,311,76.31a9,9,0,0,1,3.61-.69,9.35,9.35,0,0,1,3.45.6A6.87,6.87,0,0,1,320.65,78a7.69,7.69,0,0,1,1.63,2.86A12.72,12.72,0,0,1,322.84,84.76Zm-3.18.14a10.5,10.5,0,0,0-.36-2.9,5.93,5.93,0,0,0-1.05-2.07,4.31,4.31,0,0,0-1.65-1.25,5.42,5.42,0,0,0-2.17-.42,4.79,4.79,0,0,0-2.38.55,4.65,4.65,0,0,0-1.63,1.45,6.39,6.39,0,0,0-.93,2.12,10.87,10.87,0,0,0-.29,2.52,10.14,10.14,0,0,0,.37,2.91,5.72,5.72,0,0,0,1,2.08,4.26,4.26,0,0,0,1.64,1.25,5.43,5.43,0,0,0,2.18.42,4.89,4.89,0,0,0,2.38-.54,4.77,4.77,0,0,0,1.63-1.46,6.33,6.33,0,0,0,.93-2.11A11.07,11.07,0,0,0,319.66,84.9Z" />
	<path fill-rule="evenodd" clip-rule="evenodd" fill="currentColor" d="M328.07,75.94h2.84l.09,3.3a11.5,11.5,0,0,1,3.13-2.76,6.29,6.29,0,0,1,3.12-.86,5.09,5.09,0,0,1,4.22,1.8,8.07,8.07,0,0,1,1.33,5.36h-3.14a6,6,0,0,0-.69-3.42,2.47,2.47,0,0,0-2.17-1.06,3.72,3.72,0,0,0-1.26.22,5.25,5.25,0,0,0-1.3.71,11.81,11.81,0,0,0-1.42,1.26,23.79,23.79,0,0,0-1.61,1.86V93.87h-3.14Z" />
	<path fill-rule="evenodd" clip-rule="evenodd" fill="currentColor" d="M361.37,93.2a13.53,13.53,0,0,1-2.49.69,15.16,15.16,0,0,1-2.64.23,8.81,8.81,0,0,1-6.54-2.31c-1.53-1.53-2.29-3.78-2.29-6.73a10.82,10.82,0,0,1,.66-3.86,8.7,8.7,0,0,1,1.85-3,8.28,8.28,0,0,1,2.86-1.9,9.65,9.65,0,0,1,3.66-.67,16.47,16.47,0,0,1,2.61.2,10.61,10.61,0,0,1,2.32.64v3a9.87,9.87,0,0,0-2.37-.88,11.31,11.31,0,0,0-2.49-.28,5.57,5.57,0,0,0-2.26.46,5.47,5.47,0,0,0-1.86,1.31,6.16,6.16,0,0,0-1.27,2.09,7.83,7.83,0,0,0-.46,2.78,6.69,6.69,0,0,0,1.58,4.87,5.83,5.83,0,0,0,4.38,1.62,10.46,10.46,0,0,0,2.45-.29,10.32,10.32,0,0,0,2.3-.86Z" />
	<path fill-rule="evenodd" clip-rule="evenodd" fill="currentColor" d="M382.68,84c0,.44,0,.81,0,1.1s0,.58-.06.84H370a5.61,5.61,0,0,0,1.53,4.23A6.17,6.17,0,0,0,376,91.6c.52,0,1.05,0,1.57-.06s1-.1,1.52-.17l1.4-.25a12,12,0,0,0,1.24-.29v2.55a21.49,21.49,0,0,1-2.86.58,23.81,23.81,0,0,1-3.32.23,11.19,11.19,0,0,1-4-.63,6.81,6.81,0,0,1-2.72-1.81,7.42,7.42,0,0,1-1.57-2.91,13.75,13.75,0,0,1-.51-3.9,11.66,11.66,0,0,1,.54-3.58,9.12,9.12,0,0,1,1.59-3,7.55,7.55,0,0,1,6-2.77,8.59,8.59,0,0,1,3.32.59,6.68,6.68,0,0,1,2.44,1.67,7.11,7.11,0,0,1,1.5,2.62A11,11,0,0,1,382.68,84Zm-3.23-.45a6.68,6.68,0,0,0-.23-2.19,4.51,4.51,0,0,0-.88-1.7,4.16,4.16,0,0,0-1.49-1.12,5,5,0,0,0-2.07-.4,4.21,4.21,0,0,0-3.31,1.5,5.93,5.93,0,0,0-1,1.71,8,8,0,0,0-.46,2.2Z" />
	<path fill-rule="evenodd" clip-rule="evenodd" fill="currentColor" d="M402.06,68.64,389.81,97.7h-3l12.25-29.06Z" />
	<path fill-rule="evenodd" clip-rule="evenodd" fill="currentColor" d="M408.63,76.1l1.92-2,12,10-12,10-1.92-2,9.73-8Z" />
</svg>